<svg xmlns="http://www.w3.org/2000/svg" width="14" height="8" viewBox="0 0 14 8" fill="none">
  <path d="M0.27668 0.283515C0.461133 0.099062 0.679526 0.00683536 0.931858 0.00683537C1.18419 0.00683538 1.40234 0.099062 1.5863 0.283515L6.99078 5.688L12.4137 0.26507C12.5859 0.092914 12.8011 0.00683589 13.0593 0.0068359C13.3175 0.00683591 13.5389 0.0990625 13.7233 0.283516C13.9078 0.467969 14 0.686362 14 0.938694C14 1.19103 13.9078 1.40917 13.7233 1.59313L7.50725 7.79076C7.43347 7.86454 7.35354 7.91693 7.26746 7.94792C7.18138 7.9789 7.08915 7.99415 6.99078 7.99366C6.8924 7.99366 6.80018 7.97817 6.7141 7.94718C6.62802 7.91619 6.54809 7.86405 6.47431 7.79076L0.258235 1.57469C0.0860786 1.40253 -5.17303e-08 1.19029 -4.07005e-08 0.937955C-2.96707e-08 0.685623 0.092227 0.467477 0.27668 0.283515Z" fill="#334155"/>
</svg>